# xmcd
#
# Track frame offsets: 
#        150
#        30261
#        67777
#        93798
#        140707
#        170975
#        211476
#        258637
#        296896
#
# Disc length: 4732 seconds
#
# Revision: 2
# Processed by: cddbd v1.5.2PL0 Copyright (c) Steve Scherf et al.
# Submitted via: ExactAudioCopyFreeDBPlugin 1.0
#
DISCID=87127a09
DTITLE=Various Artist - Philly ReGrooved:  Tom Moulton Remixes
DYEAR=2013
DGENRE=Soul
TTITLE0=The Spinners - Could it Be I'm Falling in Love
TTITLE1=New York City - I'm Doing Fine Now
TTITLE2=Sons of Robin Stone - Got to Get You Back
TTITLE3=Blue Magic - Look Me Up
TTITLE4=The Philly Devotions - I Just Can't Say Goodbye
TTITLE5=Melba Moore - Standing Right Here
TTITLE6=Bettye Swann - When the Game is Played on You
TTITLE7=The Modulations - I Can't Fight Your Love
TTITLE8=Marc Evans - The Way You Love Me
EXTD=
EXTT0=
EXTT1=
EXTT2=
EXTT3=
EXTT4=
EXTT5=
EXTT6=
EXTT7=
EXTT8=
PLAYORDER=
